HIERARCHY
ROOT Hips
{
 OFFSET 0.000000 0.000000 0.000000
 CHANNELS 6 Xposition Yposition Zposition Yrotation Xrotation Zrotation
 JOINT Chest
 {
  OFFSET 0.000000 9.585900 0.002600
  CHANNELS 3 Yrotation Xrotation Zrotation
  JOINT Chest2
  {
   OFFSET 0.000000 9.601200 -0.005300
   CHANNELS 3 Yrotation Xrotation Zrotation
   JOINT Chest3
   {
    OFFSET 0.000000 9.561800 0.000000
    CHANNELS 3 Yrotation Xrotation Zrotation
    JOINT Chest4
    {
     OFFSET 0.000000 9.552100 0.000000
     CHANNELS 3 Yrotation Xrotation Zrotation
     JOINT Neck
     {
      OFFSET 0.000000 14.453000 0.000000
      CHANNELS 3 Yrotation Xrotation Zrotation
      JOINT Head
      {
       OFFSET 0.000000 8.936500 -0.011300
       CHANNELS 3 Yrotation Xrotation Zrotation
       End Site
       {
        OFFSET 0.000000 17.073600 -0.006000
       }
      }
     }
     JOINT RightCollar
     {
      OFFSET -2.921100 9.558500 0.000000
      CHANNELS 3 Yrotation Xrotation Zrotation
      JOINT RightShoulder
      {
       OFFSET -13.519700 0.000000 0.000000
       CHANNELS 3 Yrotation Xrotation Zrotation
       JOINT RightElbow
       {
        OFFSET 0.000000 -29.696600 0.000000
        CHANNELS 3 Yrotation Xrotation Zrotation
        JOINT RightWrist
        {
         OFFSET 0.000000 -24.004700 0.000000
         CHANNELS 3 Yrotation Xrotation Zrotation
         End Site
         {
          OFFSET 0.000000 -17.728500 0.000000
         }
        }
       }
      }
     }
     JOINT LeftCollar
     {
      OFFSET 2.921100 9.558500 0.000000
      CHANNELS 3 Yrotation Xrotation Zrotation
      JOINT LeftShoulder
      {
       OFFSET 13.519700 0.000000 0.000000
       CHANNELS 3 Yrotation Xrotation Zrotation
       JOINT LeftElbow
       {
        OFFSET 0.000000 -29.696600 0.000000
        CHANNELS 3 Yrotation Xrotation Zrotation
        JOINT LeftWrist
        {
         OFFSET 0.000000 -24.004700 0.000000
         CHANNELS 3 Yrotation Xrotation Zrotation
         End Site
         {
          OFFSET 0.000000 -17.728500 0.000000
         }
        }
       }
      }
     }
    }
   }
  }
 }
 JOINT RightHip
 {
  OFFSET -7.771700 -0.012900 -0.001300
  CHANNELS 3 Yrotation Xrotation Zrotation
  JOINT RightKnee
  {
   OFFSET 0.000000 -40.869800 0.001200
   CHANNELS 3 Yrotation Xrotation Zrotation
   JOINT RightAnkle
   {
    OFFSET 0.000000 -39.717900 0.002100
    CHANNELS 3 Yrotation Xrotation Zrotation
    JOINT RightToe
    {
     OFFSET 0.000000 -4.965400 11.033500
     CHANNELS 3 Yrotation Xrotation Zrotation
     End Site
     {
      OFFSET 0.000000 -1.423100 5.872300
     }
    }
   }
  }
 }
 JOINT LeftHip
 {
  OFFSET 7.771700 -0.012900 -0.001300
  CHANNELS 3 Yrotation Xrotation Zrotation
  JOINT LeftKnee
  {
   OFFSET 0.000000 -40.869800 0.001200
   CHANNELS 3 Yrotation Xrotation Zrotation
   JOINT LeftAnkle
   {
    OFFSET 0.000000 -39.717900 0.002100
    CHANNELS 3 Yrotation Xrotation Zrotation
    JOINT LeftToe
    {
     OFFSET 0.000000 -4.965400 11.033500
     CHANNELS 3 Yrotation Xrotation Zrotation
     End Site
     {
      OFFSET 0.000000 -1.423100 5.872300
     }
    }
   }
  }
 }
}
MOTION
Frames: 11
Frame Time: 0.008333
-37.101317 57.948637 12.738511 177.727369 -50.128965 -3.824412 3.627166 22.349372 3.013197 1.828478 12.799217 1.473141 2.376429 16.005379 1.903457 1.839961 12.805489 1.466931 2.473968 17.608215 7.604206 2.024003 -3.010996 13.212729 1.483141 4.972423 0.872433 -4.854191 -14.559438 -8.812213 -60.098550 -44.858216 118.252060 4.525771 13.994953 -10.360964 -9.000421 1.135312 -0.870176 2.425813 -8.723956 14.743591 59.935409 -47.278770 -117.206571 9.505428 2.562401 8.165657 2.279168 -21.504840 -3.343732 -30.560485 72.995227 -33.671422 6.873196 -11.811718 10.699589 0.033599 0.145920 -0.071719 -6.847595 -18.826078 6.110454 87.162390 82.404574 86.877840 1.243580 -21.944616 -18.015673 -0.014070 0.003201 -0.025942
-37.094838 57.956223 12.740961 177.714074 -50.143330 -3.812045 3.618206 22.355307 3.012450 1.839117 12.806218 1.467864 2.366874 15.999490 1.913305 1.832675 12.800864 1.474840 2.474715 17.616798 7.595730 2.019008 -3.007433 13.215285 1.463289 4.957750 0.883670 -4.873533 -14.544514 -8.814384 -60.066411 -44.877629 118.248750 4.539654 13.975384 -10.331957 -8.989684 1.141524 -0.894163 2.382653 -8.743964 14.792414 59.957416 -47.250568 -117.200575 9.517326 2.547446 8.160448 2.238851 -21.479895 -3.333184 -30.514355 72.979746 -33.661818 6.867034 -11.868510 10.727938 0.040441 0.187283 -0.092984 -6.836563 -18.806462 6.100923 87.123360 82.402235 86.848411 1.255050 -21.941416 -18.025103 -0.022125 0.000065 -0.020661
-37.088808 57.963633 12.742256 177.727456 -50.157525 -3.819723 3.589716 22.357294 3.004091 1.838724 12.807721 1.469463 2.366471 16.001282 1.915322 1.827397 12.796372 1.484267 2.475884 17.626149 7.587760 2.014522 -3.001612 13.221394 1.462019 4.961843 0.876190 -4.861718 -14.533973 -8.829034 -60.127552 -44.880122 118.287495 4.524772 14.004514 -10.314331 -8.988815 1.141401 -0.899625 2.385296 -8.743595 14.793169 59.956702 -47.259541 -117.197774 9.521167 2.540050 8.138459 2.156880 -21.455184 -3.309142 -30.532532 72.956870 -33.736824 6.886648 -11.915716 10.738176 0.017538 0.188148 -0.089560 -6.841733 -18.789554 6.094751 87.093660 82.400846 86.823549 1.259489 -21.935851 -18.021785 -0.026452 -0.003377 -0.027319
-37.083143 57.970359 12.742611 177.711933 -50.171012 -3.806476 3.567160 22.351565 3.001787 1.847706 12.816382 1.465967 2.363290 16.001178 1.916886 1.821221 12.789529 1.493449 2.474393 17.637494 7.579722 2.013501 -2.992049 13.222566 1.461070 4.969430 0.862934 -4.877098 -14.530006 -8.827294 -60.091203 -44.889164 118.279471 4.540433 13.982674 -10.298914 -8.984851 1.143762 -0.908579 2.389429 -8.741810 14.790448 59.955391 -47.270050 -117.196510 9.510967 2.537889 8.118939 2.157656 -21.441602 -3.305800 -30.620140 72.943328 -33.827864 6.909501 -11.948827 10.752639 0.007607 0.173244 -0.084098 -6.824610 -18.770654 6.086971 87.057647 82.397786 86.799495 1.263697 -21.936667 -18.027425 -0.028900 -0.004656 -0.029148
-37.078540 57.976442 12.741777 177.693685 -50.184011 -3.788877 3.573800 22.361276 2.998587 1.814839 12.792572 1.481537 2.374068 16.014993 1.906746 1.825514 12.795993 1.485416 2.468918 17.635462 7.591486 2.015145 -2.981979 13.221000 1.458784 4.971927 0.858414 -4.885331 -14.533651 -8.820960 -60.110977 -44.895831 118.282254 4.542103 13.987549 -10.280652 -9.003223 1.121756 -0.888229 2.404409 -8.724605 14.778690 59.960404 -47.253067 -117.191382 9.489587 2.548580 8.105317 2.134428 -21.425144 -3.290967 -30.698669 72.923184 -33.941069 6.927991 -12.003771 10.793541 0.002905 0.177709 -0.094571 -6.801855 -18.749884 6.075522 87.000517 82.395009 86.757224 1.268595 -21.941313 -18.034926 -0.029891 -0.003472 -0.027472
-37.074511 57.981968 12.739687 177.679132 -50.197421 -3.775047 3.563311 22.363788 2.994632 1.818974 12.793379 1.482767 2.356838 16.000039 1.921983 1.835284 12.813725 1.466187 2.462118 17.619312 7.623276 2.021203 -2.954379 13.185489 1.455957 4.974701 0.853859 -4.882584 -14.540362 -8.816536 -60.124691 -44.900092 118.280920 4.551613 13.986033 -10.280611 -9.018240 1.108097 -0.878145 2.421590 -8.709034 14.764915 59.952503 -47.274017 -117.182621 9.487970 2.543545 8.093894 2.088422 -21.408318 -3.259147 -30.866458 72.884339 -34.172212 6.983391 -12.063670 10.845698 -0.003011 0.145796 -0.084094 -6.788598 -18.734605 6.070728 86.992782 82.393484 86.756075 1.268583 -21.936076 -18.040011 -0.033447 -0.010871 -0.022993
-37.072046 57.984623 12.738168 177.668513 -50.194008 -3.759664 3.542324 22.338222 2.990536 1.833796 12.813430 1.472183 2.351966 15.995104 1.926666 1.818551 12.785370 1.497173 2.467104 17.655453 7.583578 2.020465 -2.953302 13.191820 1.443141 4.976280 0.839939 -4.864859 -14.521521 -8.819404 -60.122422 -44.925957 118.267962 4.552546 13.966591 -10.288079 -9.008238 1.128985 -0.918698 2.423159 -8.708027 14.766185 59.943397 -47.292430 -117.174319 9.488165 2.538073 8.088717 2.076698 -21.409101 -3.254770 -30.949619 72.873510 -34.279142 6.996664 -12.145564 10.911591 -0.005579 0.204772 -0.134100 -6.773459 -18.736253 6.060738 86.975162 82.398209 86.748697 1.273129 -21.936760 -18.043515 -0.033129 -0.012418 -0.021474
-37.069281 57.988231 12.734325 177.656403 -50.203710 -3.748840 3.544249 22.340085 2.991834 1.827525 12.808697 1.476721 2.348190 15.993276 1.928986 1.817782 12.783562 1.500003 2.462764 17.658818 7.585791 2.016186 -2.947375 13.197000 1.435525 4.973447 0.835819 -4.850639 -14.504649 -8.833989 -60.158099 -44.932422 118.295481 4.541734 13.967730 -10.297402 -9.012849 1.133629 -0.931581 2.416948 -8.711052 14.777683 59.931170 -47.300975 -117.161604 9.484871 2.523867 8.087502 2.071880 -21.400189 -3.244958 -31.018162 72.867824 -34.365461 7.005334 -12.186347 10.942066 0.006419 0.192675 -0.129229 -6.747234 -18.720607 6.055984 86.943088 82.403415 86.736227 1.269262 -21.943187 -18.046724 -0.025744 -0.013839 -0.018485
-37.066730 57.990660 12.730100 177.649173 -50.209211 -3.744678 3.544366 22.335511 3.000426 1.822562 12.807038 1.476362 2.344554 15.991023 1.932344 1.817777 12.779703 1.506060 2.456426 17.662535 7.584764 2.005389 -2.963697 13.224723 1.428241 4.978099 0.826665 -4.852604 -14.505926 -8.827141 -60.204860 -44.939492 118.326084 4.523241 13.991030 -10.301331 -9.021121 1.133161 -0.938333 2.409397 -8.711888 14.780083 59.920160 -47.326073 -117.145300 9.500780 2.502823 8.087445 2.069004 -21.395263 -3.232979 -31.055573 72.864399 -34.413174 6.999831 -12.216939 10.961831 -0.002256 0.157930 -0.107098 -6.737641 -18.712857 6.055640 86.968243 82.405419 86.767486 1.272967 -21.945600 -18.043762 -0.027335 -0.016810 -0.022088
-37.066058 57.992472 12.724980 177.651344 -50.215513 -3.740277 3.534512 22.328762 3.003745 1.819587 12.810154 1.476780 2.337566 15.968550 1.955157 1.815142 12.794558 1.490354 2.451269 17.647831 7.602188 1.996766 -2.948581 13.208495 1.424153 4.994520 0.808443 -4.863683 -14.532768 -8.785280 -60.186800 -44.965135 118.296059 4.512129 13.986995 -10.308661 -9.048288 1.105043 -0.929648 2.419214 -8.680098 14.768299 59.928191 -47.329046 -117.136921 9.508440 2.496731 8.085101 2.068477 -21.388453 -3.227393 -31.145057 72.862316 -34.514623 7.006776 -12.257090 10.982141 -0.007760 0.163798 -0.105024 -6.731673 -18.705411 6.047270 86.983581 82.402073 86.786814 1.270315 -21.948447 -18.042939 -0.027726 -0.017594 -0.021310
-37.068914 57.994364 12.718415 177.658659 -50.228456 -3.722080 3.517037 22.331265 2.985120 1.816980 12.806511 1.483752 2.334085 15.968562 1.956721 1.812849 12.792858 1.494217 2.447045 17.645246 7.603079 1.988466 -2.944323 13.204599 1.412854 4.993188 0.803045 -4.856194 -14.520613 -8.792296 -60.220286 -44.971431 118.317966 4.502437 13.996311 -10.311495 -9.055349 1.109672 -0.945633 2.385603 -8.700507 14.798730 59.939391 -47.316338 -117.112642 9.514228 2.483197 8.077010 2.074238 -21.373982 -3.242118 -31.261621 72.866417 -34.660682 7.026667 -12.309345 11.023171 -0.012979 0.150060 -0.096559 -6.716285 -18.690872 6.018818 86.971726 82.401532 86.781712 1.265052 -21.954234 -18.040004 -0.024431 -0.016921 -0.019144
